<svg width="146" height="48" viewBox="0 0 146 48" fill="none" xmlns="http://www.w3.org/2000/svg">
<rect x="0.5" y="0.5" width="145" height="47" rx="15.5" stroke="#ADADAD"/>
<path d="M23.5059 31V17.9091H26.2737V28.718H31.8859V31H23.5059ZM38.3421 31.1918C37.3322 31.1918 36.4629 30.9872 35.7342 30.5781C35.0097 30.1648 34.4515 29.581 34.0595 28.8267C33.6674 28.0682 33.4714 27.1712 33.4714 26.1357C33.4714 25.1257 33.6674 24.2393 34.0595 23.4766C34.4515 22.7138 35.0034 22.1193 35.715 21.6932C36.4309 21.267 37.2704 21.054 38.2335 21.054C38.8812 21.054 39.4842 21.1584 40.0424 21.3672C40.6049 21.5717 41.095 21.8807 41.5126 22.294C41.9345 22.7074 42.2626 23.2273 42.497 23.8537C42.7313 24.4759 42.8485 25.2045 42.8485 26.0398V26.7876H34.558V25.1001H40.2853C40.2853 24.7081 40.2001 24.3608 40.0296 24.0582C39.8592 23.7557 39.6227 23.5192 39.3201 23.3487C39.0218 23.174 38.6745 23.0866 38.2782 23.0866C37.8649 23.0866 37.4984 23.1825 37.1788 23.3743C36.8634 23.5618 36.6163 23.8153 36.4373 24.1349C36.2583 24.4503 36.1667 24.8018 36.1624 25.1896V26.794C36.1624 27.2798 36.2519 27.6996 36.4309 28.0533C36.6142 28.407 36.872 28.6797 37.2044 28.8714C37.5367 29.0632 37.9309 29.1591 38.3869 29.1591C38.6894 29.1591 38.9664 29.1165 39.2178 29.0312C39.4693 28.946 39.6845 28.8182 39.8634 28.6477C40.0424 28.4773 40.1788 28.2685 40.2725 28.0213L42.791 28.1875C42.6632 28.7926 42.4011 29.321 42.0048 29.7727C41.6127 30.2202 41.1056 30.5696 40.4835 30.821C39.8656 31.0682 39.1518 31.1918 38.3421 31.1918ZM47.6252 31.1854C46.9988 31.1854 46.4406 31.0767 45.9505 30.8594C45.4605 30.6378 45.0727 30.3118 44.7872 29.8814C44.5059 29.4467 44.3653 28.9055 44.3653 28.2578C44.3653 27.7124 44.4654 27.2543 44.6657 26.8835C44.866 26.5128 45.1387 26.2145 45.4839 25.9886C45.8291 25.7628 46.2211 25.5923 46.66 25.4773C47.1032 25.3622 47.5677 25.2812 48.0535 25.2344C48.6245 25.1747 49.0847 25.1193 49.4342 25.0682C49.7836 25.0128 50.0372 24.9318 50.1948 24.8253C50.3525 24.7187 50.4313 24.5611 50.4313 24.3523V24.3139C50.4313 23.9091 50.3035 23.5959 50.0478 23.3743C49.7964 23.1527 49.4384 23.0419 48.974 23.0419C48.4839 23.0419 48.094 23.1506 47.8042 23.3679C47.5144 23.581 47.3227 23.8494 47.2289 24.1733L44.7105 23.9688C44.8383 23.3722 45.0897 22.8565 45.4647 22.4219C45.8397 21.983 46.3234 21.6463 46.9157 21.4119C47.5123 21.1733 48.2026 21.054 48.9867 21.054C49.5322 21.054 50.0542 21.1179 50.5528 21.2457C51.0556 21.3736 51.5009 21.5717 51.8887 21.8402C52.2808 22.1087 52.5897 22.4538 52.8156 22.8757C53.0414 23.2933 53.1543 23.794 53.1543 24.3778V31H50.572V29.6385H50.4953C50.3376 29.9453 50.1267 30.2159 49.8624 30.4503C49.5982 30.6804 49.2808 30.8615 48.91 30.9936C48.5393 31.1214 48.111 31.1854 47.6252 31.1854ZM48.4051 29.3061C48.8056 29.3061 49.1593 29.2273 49.4661 29.0696C49.773 28.9077 50.0137 28.6903 50.1884 28.4176C50.3632 28.1449 50.4505 27.8359 50.4505 27.4908V26.4489C50.3653 26.5043 50.2481 26.5554 50.099 26.6023C49.9541 26.6449 49.79 26.6854 49.6068 26.7237C49.4235 26.7578 49.2403 26.7898 49.057 26.8196C48.8738 26.8452 48.7076 26.8686 48.5585 26.8899C48.2389 26.9368 47.9597 27.0114 47.7211 27.1136C47.4825 27.2159 47.2971 27.3544 47.165 27.5291C47.0329 27.6996 46.9668 27.9126 46.9668 28.1683C46.9668 28.5391 47.1011 28.8224 47.3695 29.0185C47.6423 29.2102 47.9874 29.3061 48.4051 29.3061ZM55.4669 31V21.1818H58.1068V22.8949H58.2091C58.3881 22.2855 58.6885 21.8253 59.1104 21.5142C59.5323 21.1989 60.0181 21.0412 60.5678 21.0412C60.7041 21.0412 60.8512 21.0497 61.0088 21.0668C61.1665 21.0838 61.305 21.1072 61.4243 21.1371V23.5533C61.2965 23.5149 61.1196 23.4808 60.8938 23.451C60.6679 23.4212 60.4612 23.4062 60.2737 23.4062C59.8732 23.4062 59.5152 23.4936 59.1999 23.6683C58.8888 23.8388 58.6416 24.0774 58.4584 24.3842C58.2794 24.6911 58.1899 25.0447 58.1899 25.4453V31H55.4669ZM65.7552 25.3239V31H63.0322V21.1818H65.6273V22.9141H65.7424C65.9597 22.343 66.3241 21.8913 66.8354 21.5589C67.3468 21.2223 67.9668 21.054 68.6955 21.054C69.3773 21.054 69.9718 21.2031 70.4789 21.5014C70.986 21.7997 71.3802 22.2259 71.6614 22.7798C71.9427 23.3295 72.0833 23.9858 72.0833 24.7486V31H69.3603V25.2344C69.3645 24.6335 69.2111 24.1648 68.9001 23.8281C68.589 23.4872 68.1607 23.3168 67.6153 23.3168C67.2488 23.3168 66.9249 23.3956 66.6437 23.5533C66.3667 23.7109 66.1493 23.9411 65.9917 24.2436C65.8383 24.5419 65.7594 24.902 65.7552 25.3239ZM78.7954 31V21.1818H81.3906V22.9141H81.5057C81.7102 22.3388 82.0511 21.8849 82.5284 21.5526C83.0057 21.2202 83.5767 21.054 84.2415 21.054C84.9148 21.054 85.4879 21.2223 85.9609 21.5589C86.4339 21.8913 86.7493 22.343 86.9069 22.9141H87.0092C87.2095 22.3516 87.5717 21.902 88.0959 21.5653C88.6243 21.2244 89.2486 21.054 89.9687 21.054C90.8849 21.054 91.6285 21.3459 92.1996 21.9297C92.7748 22.5092 93.0625 23.3317 93.0625 24.397V31H90.3459V24.9339C90.3459 24.3885 90.201 23.9794 89.9112 23.7067C89.6214 23.4339 89.2592 23.2976 88.8246 23.2976C88.3302 23.2976 87.9446 23.4553 87.6676 23.7706C87.3906 24.0817 87.2521 24.4929 87.2521 25.0043V31H84.6122V24.8764C84.6122 24.3949 84.4737 24.0114 84.1967 23.7259C83.924 23.4403 83.5639 23.2976 83.1165 23.2976C82.8139 23.2976 82.5412 23.3743 82.2983 23.5277C82.0596 23.6768 81.87 23.8878 81.7294 24.1605C81.5888 24.429 81.5184 24.7443 81.5184 25.1065V31H78.7954ZM99.8495 31.1918C98.8566 31.1918 97.9979 30.9808 97.2735 30.5589C96.5533 30.1328 95.9972 29.5405 95.6052 28.782C95.2131 28.0192 95.0171 27.1349 95.0171 26.1293C95.0171 25.1151 95.2131 24.2287 95.6052 23.4702C95.9972 22.7074 96.5533 22.1151 97.2735 21.6932C97.9979 21.267 98.8566 21.054 99.8495 21.054C100.842 21.054 101.699 21.267 102.419 21.6932C103.144 22.1151 103.702 22.7074 104.094 23.4702C104.486 24.2287 104.682 25.1151 104.682 26.1293C104.682 27.1349 104.486 28.0192 104.094 28.782C103.702 29.5405 103.144 30.1328 102.419 30.5589C101.699 30.9808 100.842 31.1918 99.8495 31.1918ZM99.8623 29.0824C100.314 29.0824 100.691 28.9545 100.994 28.6989C101.296 28.4389 101.524 28.0852 101.678 27.6378C101.835 27.1903 101.914 26.6811 101.914 26.1101C101.914 25.5391 101.835 25.0298 101.678 24.5824C101.524 24.1349 101.296 23.7812 100.994 23.5213C100.691 23.2614 100.314 23.1314 99.8623 23.1314C99.4063 23.1314 99.0228 23.2614 98.7117 23.5213C98.4049 23.7812 98.1726 24.1349 98.015 24.5824C97.8616 25.0298 97.7849 25.5391 97.7849 26.1101C97.7849 26.6811 97.8616 27.1903 98.015 27.6378C98.1726 28.0852 98.4049 28.4389 98.7117 28.6989C99.0228 28.9545 99.4063 29.0824 99.8623 29.0824ZM106.652 31V21.1818H109.292V22.8949H109.395C109.574 22.2855 109.874 21.8253 110.296 21.5142C110.718 21.1989 111.204 21.0412 111.753 21.0412C111.89 21.0412 112.037 21.0497 112.194 21.0668C112.352 21.0838 112.491 21.1072 112.61 21.1371V23.5533C112.482 23.5149 112.305 23.4808 112.079 23.451C111.853 23.4212 111.647 23.4062 111.459 23.4062C111.059 23.4062 110.701 23.4936 110.385 23.6683C110.074 23.8388 109.827 24.0774 109.644 24.3842C109.465 24.6911 109.375 25.0447 109.375 25.4453V31H106.652ZM118.235 31.1918C117.225 31.1918 116.356 30.9872 115.627 30.5781C114.903 30.1648 114.344 29.581 113.952 28.8267C113.56 28.0682 113.364 27.1712 113.364 26.1357C113.364 25.1257 113.56 24.2393 113.952 23.4766C114.344 22.7138 114.896 22.1193 115.608 21.6932C116.324 21.267 117.163 21.054 118.126 21.054C118.774 21.054 119.377 21.1584 119.935 21.3672C120.498 21.5717 120.988 21.8807 121.406 22.294C121.827 22.7074 122.156 23.2273 122.39 23.8537C122.624 24.4759 122.741 25.2045 122.741 26.0398V26.7876H114.451V25.1001H120.178C120.178 24.7081 120.093 24.3608 119.923 24.0582C119.752 23.7557 119.516 23.5192 119.213 23.3487C118.915 23.174 118.567 23.0866 118.171 23.0866C117.758 23.0866 117.391 23.1825 117.072 23.3743C116.756 23.5618 116.509 23.8153 116.33 24.1349C116.151 24.4503 116.06 24.8018 116.055 25.1896V26.794C116.055 27.2798 116.145 27.6996 116.324 28.0533C116.507 28.407 116.765 28.6797 117.097 28.8714C117.43 29.0632 117.824 29.1591 118.28 29.1591C118.582 29.1591 118.859 29.1165 119.111 29.0312C119.362 28.946 119.577 28.8182 119.756 28.6477C119.935 28.4773 120.072 28.2685 120.166 28.0213L122.684 28.1875C122.556 28.7926 122.294 29.321 121.898 29.7727C121.506 30.2202 120.999 30.5696 120.376 30.821C119.759 31.0682 119.045 31.1918 118.235 31.1918Z" fill="#6C5CE7"/>
</svg>
